<?xml version="1.0" standalone="no"?>
<!DOCTYPE svg PUBLIC "-//W3C//DTD SVG 20010904//EN"
 "http://www.w3.org/TR/2001/REC-SVG-20010904/DTD/svg10.dtd">
<svg version="1.0" xmlns="http://www.w3.org/2000/svg"
 width="500.000000pt" height="500.000000pt" viewBox="0 0 500.000000 500.000000"
 preserveAspectRatio="xMidYMid meet">

<g transform="translate(0.000000,500.000000) scale(0.100000,-0.100000)"
fill="#ffffff" stroke="none">
<path d="M1510 4299 c-147 -19 -276 -83 -355 -178 -49 -60 -73 -108 -96 -198
-17 -69 -19 -113 -19 -487 0 -460 -7 -554 -46 -633 -47 -97 -129 -132 -324
-138 -69 -2 -128 -4 -132 -5 -5 0 -8 -63 -8 -140 l0 -140 43 -1 c246 -3 345
-29 403 -104 54 -71 57 -98 63 -635 6 -483 7 -497 30 -560 60 -172 194 -287
376 -325 39 -7 143 -15 233 -17 l162 -3 0 131 0 132 -137 5 c-159 5 -212 20
-268 74 -21 20 -47 57 -59 82 -20 44 -21 65 -27 521 -5 440 -7 479 -25 535
-42 124 -129 219 -247 268 -59 25 -50 49 33 93 79 41 155 117 190 188 43 89
49 172 50 617 0 455 2 478 59 556 19 27 50 51 88 69 54 27 68 29 201 33 l142
3 0 134 0 134 -132 -1 c-73 -1 -162 -5 -198 -10z"/>
<path d="M3160 4178 l0 -136 143 -3 c132 -4 146 -6 200 -33 38 -18 69 -42 88
-69 57 -78 59 -100 59 -558 0 -446 6 -524 51 -616 35 -72 110 -145 188 -184
90 -44 94 -66 19 -104 -123 -62 -191 -137 -232 -260 -18 -56 -20 -94 -25 -535
-6 -456 -7 -477 -27 -521 -12 -25 -38 -62 -59 -82 -56 -54 -109 -69 -268 -75
l-138 -4 3 -130 3 -130 160 1 c184 2 271 17 363 62 87 43 175 126 212 202 61
127 62 136 69 677 8 532 8 531 62 601 51 65 130 88 324 94 55 1 103 3 108 4 4
0 7 63 7 140 0 124 -2 139 -17 143 -10 2 -72 5 -137 7 -189 5 -263 37 -312
138 l-29 58 -6 495 c-6 451 -8 501 -26 566 -53 190 -179 311 -374 359 -38 10
-133 18 -236 22 l-173 6 0 -135z"/>
</g>
</svg>
