<svg
  xmlns="http://www.w3.org/2000/svg"
  viewBox="0 0 100 100"
  width="100"
  height="100"
>
  <g transform="translate(50 50) scale(1) translate(-50 -50)">
    <path
      fill="white"
      d="M43.2,50H26.3c-0.6,0.8-1.2,1.6-1.9,2.3c-6.2,6.9-11,16.7-11,22.3c0,3.6,0,14.4,21.3,14.4C56,89.1,56,78.2,56,74.7
      c0-5.6-4.8-15.4-11-22.3C44.4,51.6,43.8,50.8,43.2,50z"
    />
    <path
      fill="white"
      d="M34.8,93.3c-11.6,0-25.5-3.2-25.5-18.6c0-7.6,6.1-18.4,12.1-25.1c4.2-4.7,6.5-10.6,6.5-16.6V6.7h13.9v26.2
      c0,6.1,2.3,12,6.5,16.6C51,52.7,53.8,56.8,56,61v-8.1c-1.5-2.3-3.1-4.3-4.7-6.1c-3.5-3.9-5.4-8.8-5.4-13.9V6.7h2.5
      c1.2,0,2.1-0.9,2.1-2.1s-0.9-2.1-2.1-2.1H21.1c-1.2,0-2.1,0.9-2.1,2.1s0.9,2.1,2.1,2.1h2.5v26.2c0,5-1.9,9.9-5.4,13.9
      C11.9,53.8,5.1,65.6,5.1,74.7c0,14.7,10.5,22.8,29.7,22.8c10.2,0,18-2.3,23-6.7c-0.7-1.4-1.1-3-1.4-4.6
      C51.4,91.8,42.6,93.3,34.8,93.3z"
    />
    <path fill="white" d="M74.7,89.1c3.4,0,6.1-2.7,6.1-6.1V35H68.6v48C68.6,86.4,71.4,89.1,74.7,89.1z" />
    <path
      fill="white"
      d="M92.8,19.4H56.6c-1.2,0-2.1,0.9-2.1,2.1c0,1.2,0.9,2.1,2.1,2.1h3.6V83c0,8,6.5,14.5,14.5,14.5S89.2,91,89.2,83V23.6h3.6
      c1.2,0,2.1-0.9,2.1-2.1C94.9,20.3,94,19.4,92.8,19.4z M85,83c0,5.7-4.6,10.3-10.3,10.3c-5.7,0-10.3-4.6-10.3-10.3V23.6H85V83z"
    />
  </g>
</svg>
