<?xml version="1.0" standalone="no"?>
<!DOCTYPE svg PUBLIC "-//W3C//DTD SVG 20010904//EN"
 "http://www.w3.org/TR/2001/REC-SVG-20010904/DTD/svg10.dtd">
<svg version="1.0" xmlns="http://www.w3.org/2000/svg"
 width="500.000000pt" height="500.000000pt" viewBox="0 0 500.000000 500.000000"
 preserveAspectRatio="xMidYMid meet">

<g transform="translate(0.000000,500.000000) scale(0.100000,-0.100000)"
fill="#fff" stroke="none">
<path d="M1693 4981 c-252 -72 -414 -240 -484 -501 -22 -83 -23 -98 -29 -760
-6 -660 -6 -676 -28 -741 -39 -118 -97 -176 -217 -220 -52 -20 -85 -23 -257
-27 l-198 -4 0 -203 0 -203 198 -4 c169 -5 205 -8 257 -27 120 -43 178 -102
217 -220 22 -65 22 -81 28 -741 6 -663 7 -677 29 -760 38 -140 84 -224 176
-316 67 -68 96 -89 175 -127 155 -75 225 -88 508 -94 l242 -5 0 186 0 186
-147 0 c-172 0 -258 12 -330 45 -101 46 -147 95 -190 205 -15 40 -18 110 -23
690 -6 615 -7 649 -28 721 -28 104 -71 185 -132 252 -53 59 -154 130 -227 162
-38 16 -43 22 -43 50 0 28 5 34 43 51 132 58 261 174 312 282 15 31 36 91 48
132 19 71 21 108 27 720 5 639 6 646 28 701 45 113 103 169 218 211 51 19 86
22 252 26 l192 4 0 174 0 174 -277 -1 c-235 0 -288 -3 -340 -18z"/>
<path d="M2720 4826 l0 -174 193 -4 c241 -6 289 -20 383 -113 49 -49 64 -73
84 -130 l24 -70 6 -645 c7 -714 5 -693 75 -836 56 -115 168 -216 303 -274 48
-21 52 -25 52 -55 0 -29 -5 -35 -42 -50 -132 -52 -257 -163 -313 -278 -70
-144 -68 -123 -75 -837 -5 -485 -10 -655 -19 -685 -51 -156 -154 -240 -326
-266 -33 -5 -124 -9 -202 -9 l-143 0 0 -186 0 -186 238 5 c248 6 307 14 435
60 162 59 296 175 365 317 86 176 92 235 92 945 0 355 4 605 11 645 21 133 84
225 184 271 86 39 157 49 342 49 l163 0 0 205 0 205 -170 0 c-182 0 -244 9
-330 47 -90 39 -139 99 -176 213 -16 50 -19 121 -25 725 -7 715 -7 718 -59
858 -37 98 -71 149 -154 232 -91 89 -177 139 -306 174 -67 19 -103 21 -342 21
l-268 0 0 -174z"/>
</g>
</svg>
